<svg width="1440" height="900" viewBox="0 0 1440 900" fill="none" xmlns="http://www.w3.org/2000/svg">
<g clip-path="url(#clip0_59_32)">
<rect width="1440" height="900" fill="#FFF4EB"/>
<path d="M-7.50126 793H1473M-9 793.152H1473V913H-9V793.152Z" stroke="#322B1F" stroke-width="11" stroke-linecap="round"/>
<path d="M84 592H551V824H84V592Z" fill="#72BFAB"/>
<path d="M551 592V824H84V592H551ZM94 814H541V602H94V814Z" fill="#4C8476"/>
<path d="M280 624H479V732H280V624Z" fill="#C3ECF6"/>
<path d="M479 624V732H280V624H479ZM286 726H473V630H286V726Z" fill="#86D7EB"/>
<path d="M331 645H514V734H331V645Z" fill="#595A96"/>
<path d="M514 645V734H331V645H514ZM337 728H508V651H337V728Z" fill="#36375A"/>
<path d="M84 737C84 725.954 92.9543 717 104 717H531C542.046 717 551 725.954 551 737V824C551 835.046 542.046 844 531 844H104C92.9543 844 84 835.046 84 824V737Z" fill="url(#paint0_linear_59_32)"/>
<path d="M531 834V844H104L104 834H531ZM541 824V737C541 731.477 536.523 727 531 727H104C98.4772 727 94 731.477 94 737V824C94 829.523 98.4772 834 104 834L104 844L103.483 843.993C92.6765 843.719 84 834.873 84 824V737C84 726.127 92.6765 717.281 103.483 717.007L104 717H531C542.046 717 551 725.954 551 737V824C551 835.046 542.046 844 531 844V834C536.523 834 541 829.523 541 824Z" fill="#4C8476"/>
<path d="M430.787 781.38C433.558 780.544 435.789 783.73 434.056 786.048L428.348 793.684C427.572 794.721 427.55 796.14 428.293 797.201L433.778 805.034C435.45 807.422 433.077 810.551 430.326 809.585L421.423 806.457C420.186 806.023 418.811 806.442 418.026 807.492L412.387 815.035C410.649 817.36 406.951 816.108 406.984 813.205L407.093 803.584C407.107 802.298 406.3 801.146 405.087 800.719L396.009 797.531C393.27 796.569 393.358 792.666 396.137 791.828L405.154 789.109C406.409 788.73 407.273 787.581 407.288 786.27L407.394 776.835C407.427 773.919 411.179 772.759 412.851 775.148L418.336 782.98C419.079 784.042 420.419 784.506 421.66 784.132L430.787 781.38Z" fill="#FFEAAD"/>
<path d="M430.787 781.38C433.558 780.544 435.789 783.73 434.056 786.048L428.348 793.684C427.621 794.657 427.555 795.964 428.162 796.998L428.293 797.201L433.778 805.034C435.45 807.422 433.077 810.551 430.326 809.585L421.423 806.457C420.186 806.023 418.811 806.442 418.026 807.492L412.387 815.035C410.703 817.287 407.181 816.182 406.992 813.473L406.984 813.205L407.093 803.584C407.107 802.298 406.3 801.146 405.087 800.719L396.009 797.531L395.76 797.432C393.358 796.363 393.436 792.875 395.884 791.915L396.137 791.828L405.154 789.109C406.409 788.73 407.273 787.581 407.288 786.27L407.394 776.835C407.426 774.01 410.948 772.833 412.689 774.934L412.851 775.148L418.336 782.98C419.033 783.975 420.254 784.446 421.426 784.192L421.66 784.132L430.787 781.38ZM422.526 787.004C420.045 787.752 417.365 786.823 415.879 784.701L410.394 776.868L410.287 786.304C410.258 788.925 408.53 791.225 406.02 791.982L397.003 794.7L406.081 797.889C408.508 798.741 410.121 801.045 410.092 803.617L409.984 813.239L415.623 805.696C417.192 803.596 419.943 802.758 422.417 803.627L431.32 806.754L425.836 798.921C424.35 796.799 424.394 793.962 425.945 791.887L431.653 784.252L422.526 787.004Z" fill="#ECC847"/>
<path d="M488.932 737.962C490.602 735.599 494.319 736.735 494.382 739.628L494.696 754.177C494.724 755.472 495.58 756.602 496.818 756.981L510.825 761.263C513.614 762.116 513.67 766.044 510.906 766.975L497.176 771.601C495.934 772.02 495.107 773.197 495.135 774.509L495.446 788.934C495.509 791.836 491.825 793.127 490.063 790.82L481.147 779.149C480.366 778.128 479.023 777.717 477.805 778.128L463.886 782.817C461.136 783.744 458.804 780.614 460.478 778.243L468.803 766.458C469.56 765.387 469.533 763.948 468.736 762.906L459.941 751.394C458.17 749.076 460.413 745.851 463.202 746.703L477.209 750.986C478.447 751.364 479.789 750.906 480.536 749.848L488.932 737.962Z" fill="#FFA7E9"/>
<path d="M488.932 737.962C490.602 735.599 494.319 736.735 494.382 739.628L494.696 754.177C494.722 755.391 495.476 756.461 496.591 756.902L496.818 756.981L510.825 761.263C513.614 762.116 513.67 766.044 510.906 766.975L497.176 771.601L496.948 771.688C495.833 772.168 495.108 773.28 495.135 774.509L495.446 788.934C495.509 791.836 491.825 793.127 490.063 790.82L481.147 779.149C480.366 778.128 479.023 777.717 477.805 778.128L463.886 782.817L463.629 782.893C461.079 783.528 458.994 780.73 460.333 778.468L460.478 778.243L468.803 766.458C469.56 765.387 469.533 763.948 468.736 762.906L459.941 751.394C458.226 749.149 460.277 746.052 462.942 746.636L463.202 746.703L477.209 750.986L477.442 751.047C478.535 751.288 479.673 750.898 480.389 750.039L480.536 749.848L488.932 737.962ZM482.987 751.578C481.493 753.694 478.808 754.612 476.331 753.855L462.325 749.573L471.121 761.085C472.713 763.169 472.767 766.047 471.254 768.189L462.929 779.974L476.847 775.285C479.283 774.465 481.97 775.286 483.53 777.328L492.447 788.999L492.135 774.573C492.079 771.951 493.733 769.596 496.218 768.758L509.948 764.133L495.941 759.85C493.464 759.093 491.752 756.831 491.697 754.241L491.383 739.692L482.987 751.578Z" fill="#D56EBB"/>
<path d="M138.512 686.158C142.649 668.248 136.213 636.408 138.512 618L220.809 618C227.357 618 224.027 673.72 224.946 694.615C195.675 698.43 135.546 698.993 138.512 686.158Z" fill="#FFEAAD"/>
<path d="M220.809 615C222.425 615 223.571 615.9 224.253 616.739C224.908 617.545 225.347 618.531 225.666 619.46C226.313 621.344 226.752 623.867 227.069 626.698C227.711 632.419 227.938 640.174 227.988 648.454C228.091 665.226 227.486 684.085 227.943 694.483L228.064 697.234L225.334 697.59C210.525 699.52 187.991 700.623 169.479 699.626C160.256 699.129 151.818 698.102 145.793 696.306C142.815 695.418 140.121 694.256 138.23 692.648C136.21 690.93 134.899 688.467 135.589 685.482C137.54 677.039 137.019 665.07 136.207 652.458C135.414 640.132 134.341 627.191 135.535 617.628L135.863 615H220.809ZM141.228 621C140.573 629.552 141.458 640.612 142.195 652.073C142.993 664.46 143.622 677.367 141.435 686.833C141.383 687.058 141.303 687.385 142.117 688.077C143.061 688.88 144.808 689.751 147.507 690.556C152.837 692.145 160.704 693.145 169.802 693.635C186.836 694.552 207.435 693.648 221.858 691.972C221.585 681.061 222.08 663.455 221.988 648.49C221.938 640.229 221.711 632.747 221.107 627.367C220.802 624.649 220.419 622.655 219.991 621.41C219.937 621.253 219.885 621.116 219.837 621H141.228Z" fill="#ECC847"/>
<path d="M88.7167 829.542L71.2299 826.925L95.6922 659.699L116.688 662.638L88.7167 829.542Z" fill="#F1CE65" stroke="#90795D" stroke-width="4"/>
<path d="M111.606 628.305L119 660.944L93.9999 657.444L111.606 628.305Z" fill="#F5DEB3"/>
<mask id="mask0_59_32" style="mask-type:alpha" maskUnits="userSpaceOnUse" x="93" y="628" width="26" height="33">
<path d="M111.606 628.305L119 660.944L93.9999 657.444L111.606 628.305Z" fill="#F5DEB3"/>
</mask>
<g mask="url(#mask0_59_32)">
<path d="M112.881 620.777L121.364 645.203L95.8039 641.377L112.881 620.777Z" fill="black"/>
</g>
<path d="M100.584 834.521L84.1071 838.937L28.1731 628.777L47.9049 623.224L100.584 834.521Z" fill="#D3B55B" stroke="#90795D" stroke-width="4"/>
<path d="M27.779 585.191L49.3471 620.742L25.733 627.386L27.779 585.191Z" fill="#F5DEB3"/>
<mask id="mask1_59_32" style="mask-type:alpha" maskUnits="userSpaceOnUse" x="25" y="585" width="25" height="43">
<path d="M27.779 585.191L49.3471 620.742L25.733 627.386L27.779 585.191Z" fill="#F5DEB3"/>
</mask>
<g mask="url(#mask1_59_32)">
<path d="M25.4266 575.705L44.163 601.035L19.906 607.534L25.4266 575.705Z" fill="black"/>
</g>
<path fill-rule="evenodd" clip-rule="evenodd" d="M-10.8856 630.1C-4.07709 629.18 1.76564 632.415 6.56759 637.573C11.4017 642.765 15.4798 650.191 18.8697 658.392C24.4888 671.986 20.2182 686.771 27.6701 700.25C30.9484 706.179 34.3288 700.263 34.3923 698.555C34.5513 694.282 34.3923 695.232 33.0479 683.308C29.0146 666.367 30.6507 653.462 34.3923 648.579C40.0597 640.893 45.5547 635.228 60.0931 641.289C76.6527 648.194 79.9089 663.862 76.594 675.947C73.7974 686.141 66.8709 696.944 57.5521 712.46C54.0011 718.373 51.9943 726.346 50.97 734.062C49.9504 741.743 49.9306 748.957 50.2207 753.208L50.3301 754.816L48.7196 755.344C43.2778 757.13 35.1802 759.308 28.6782 759.95C25.5066 760.264 22.3184 760.259 20.0006 759.38C18.7826 758.917 17.6091 758.138 16.9389 756.864C16.2672 755.587 16.2851 754.165 16.6973 752.774C17.1759 751.158 17.0707 749.087 16.3866 746.707C15.7086 744.349 14.5057 741.841 12.9974 739.449C11.4916 737.061 9.7157 734.843 7.93654 733.062C6.13006 731.254 4.43461 730.01 3.11722 729.427C-11.4876 722.971 -22.0127 708.649 -28.9323 695.232C-35.8609 681.798 -39.4496 668.723 -39.8445 664.152C-41.7362 642.247 -26.0392 630.186 -10.8856 630.1ZM3.11722 656.944C3.11722 646.444 -9.08279 639.001 -17 642.672C-26.1587 648.024 -27.6587 659.118 -25.6587 670.118C-26.3757 677.91 -7.7385 708.318 -2.65931 710.86C16.7006 717.636 18 695.444 10 687.444C2 679.444 4.11722 663.292 3.11722 656.944ZM64.1185 667.792C61.7052 651.827 53.2904 652.787 48.7196 654.241C39.3978 657.206 38.0534 682.194 55.1556 686.427C64.118 686.427 64.9507 673.298 64.1185 667.792Z" fill="#2F7673"/>
<path fill-rule="evenodd" clip-rule="evenodd" d="M-10.8856 630.1C-4.07709 629.18 1.76564 632.415 6.56759 637.573C11.4017 642.765 15.4798 650.191 18.8697 658.392C24.4888 671.986 20.2182 686.771 27.6701 700.25C30.9484 706.179 34.3288 700.263 34.3923 698.555C34.5513 694.282 34.3923 695.232 33.0479 683.308C29.0146 666.367 30.6507 653.462 34.3923 648.579C40.0597 640.893 45.5547 635.228 60.0931 641.289C76.6527 648.194 79.9089 663.862 76.594 675.947C73.7974 686.141 66.8709 696.944 57.5521 712.46C54.0011 718.373 51.9943 726.346 50.97 734.062C49.9504 741.743 49.9306 748.957 50.2207 753.208L50.3301 754.816L48.7196 755.344C43.2778 757.13 35.1802 759.308 28.6782 759.95C25.5066 760.264 22.3184 760.259 20.0006 759.38C18.7826 758.917 17.6091 758.138 16.9389 756.864C16.2672 755.587 16.2851 754.165 16.6973 752.774C17.1759 751.158 17.0707 749.087 16.3866 746.707C15.7086 744.349 14.5057 741.841 12.9974 739.449C11.4916 737.061 9.7157 734.843 7.93654 733.062C6.13006 731.254 4.43461 730.01 3.11722 729.427C-11.4876 722.971 -22.0127 708.649 -28.9323 695.232C-35.8609 681.798 -39.4496 668.723 -39.8445 664.152C-41.7362 642.247 -26.0392 630.186 -10.8856 630.1ZM3.11722 656.944C3.11722 646.444 -9.08279 639.001 -17 642.672C-26.1587 648.024 -27.6587 659.118 -25.6587 670.118C-26.3757 677.91 -7.7385 708.318 -2.65931 710.86C16.7006 717.636 18 695.444 10 687.444C2 679.444 4.11722 663.292 3.11722 656.944ZM64.1185 667.792C61.7052 651.827 53.2904 652.787 48.7196 654.241C39.3978 657.206 38.0534 682.194 55.1556 686.427C64.118 686.427 64.9507 673.298 64.1185 667.792Z" stroke="#1B4D4A" stroke-width="5"/>
<path d="M55.1556 686.427C38.0534 682.194 39.3978 657.206 48.7196 654.241C53.2904 652.787 61.7052 651.827 64.1185 667.792C64.9507 673.298 64.118 686.427 55.1556 686.427Z" stroke="#1B4D4A" stroke-width="5"/>
<path d="M3.11722 656.944C3.11722 646.444 -9.08279 639.001 -17 642.672C-26.1587 648.024 -27.6587 659.118 -25.6587 670.118C-26.3757 677.91 -7.7385 708.318 -2.65931 710.86C16.7006 717.636 18 695.444 10 687.444C2 679.444 4.11722 663.292 3.11722 656.944Z" stroke="#1B4D4A" stroke-width="5"/>
<path d="M118.681 741.567V854.944C118.681 862.124 112.861 867.944 105.681 867.944H7.23706C0.0575183 867.944 -5.76268 862.124 -5.76294 854.944V741.567H118.681Z" fill="url(#paint1_linear_59_32)" stroke="#50A3B8" stroke-width="10"/>
<path d="M804.5 849.134V869.5H635.5V849.134H804.5Z" fill="#D2FFCE" stroke="#80C27A" stroke-width="7"/>
<path d="M804.5 821.769V842.134H635.5V821.769H804.5Z" fill="#C3ECF6" stroke="#7BC9DD" stroke-width="7"/>
<path d="M804.5 794.403V814.769H635.5V794.403H804.5Z" fill="#FFCEF3" stroke="#FB83DD" stroke-width="7"/>
<path d="M804.5 767.038V787.403H635.5V767.038H804.5Z" fill="#FFEAAD" stroke="#E0BD3F" stroke-width="7"/>
<path d="M652.239 765.746L652.267 765.818H805.866C735.04 757.305 689.833 732.004 668.5 713C643.518 742.546 649.559 758.615 652.239 765.746Z" fill="#FFEAAD" stroke="#E0BD3F" stroke-width="7"/>
<rect x="-5" y="5" width="207.906" height="118.811" rx="40" transform="matrix(-1 0 0 1 1274.11 730.189)" fill="url(#paint2_linear_59_32)" stroke="#75374F" stroke-width="10"/>
<path d="M1091.82 621.434C1079.24 612.895 1064.24 609.736 1053.38 609.557C1053.38 670.679 1093.81 687.897 1114.03 688.866C1120.84 653.34 1108.43 632.702 1091.82 621.434Z" fill="#97C84C"/>
<path d="M1053.47 604.191C1065.12 604.383 1081.2 607.739 1094.84 616.993C1103.91 623.149 1111.93 631.941 1116.7 644.09C1121.47 656.223 1122.86 671.324 1119.31 689.876L1118.43 694.449L1113.78 694.227C1102.52 693.688 1086.08 688.701 1072.42 675.651C1058.6 662.455 1048.01 641.407 1048.01 609.557V604.101L1053.47 604.191ZM1058.87 615.277C1060.04 641.219 1069.14 657.682 1079.83 667.887C1089.56 677.175 1100.89 681.562 1109.58 682.992C1111.71 668.374 1110.22 656.935 1106.71 648.017C1102.83 638.149 1096.34 630.988 1088.81 625.876C1079.28 619.414 1068.14 616.27 1058.87 615.277Z" fill="#79A13D"/>
<path d="M1175.97 707.551C1085.07 718.513 1082 654.707 1091.82 621.434C1141.71 607.351 1171.56 615.566 1180.24 621.434C1229.11 661.829 1197.76 695.676 1175.97 707.551Z" fill="#287536"/>
<path d="M1090.36 616.269C1115.84 609.078 1136.39 607.524 1151.86 608.598C1166.68 609.628 1177.16 613.1 1182.72 616.643L1183.25 616.987L1183.46 617.132L1183.66 617.298C1196.35 627.79 1204.22 638.171 1208.24 648.279C1212.29 658.472 1212.3 668.099 1209.75 676.716C1204.72 693.626 1190.06 705.986 1178.54 712.263L1177.64 712.756L1176.61 712.88C1129.9 718.513 1103.85 705.026 1091.49 683.78C1079.53 663.228 1081.56 637.236 1086.67 619.914L1087.51 617.073L1090.36 616.269ZM1151.11 619.307C1137.57 618.367 1119.23 619.603 1096.18 625.801C1092.14 641.508 1091.49 662.438 1100.76 678.382C1110.14 694.489 1130.81 707.345 1174.29 702.342C1184.35 696.633 1195.68 686.363 1199.46 673.66C1201.35 667.28 1201.4 660.129 1198.27 652.244C1195.12 644.323 1188.64 635.39 1177.04 625.754C1173.64 623.545 1165.11 620.279 1151.11 619.307Z" fill="#23522C"/>
<path d="M1189.64 696.919C1206.87 670.345 1250.55 621.431 1287.46 638.372C1333.59 659.549 1306.68 716.02 1189.64 696.919Z" fill="#287536"/>
<path d="M1227.92 647.053C1246.01 633.321 1268.41 623.723 1289.7 633.494C1302.12 639.198 1310.59 647.724 1313.28 657.751C1316.04 668.039 1312.32 678.448 1303.38 686.695C1294.55 694.835 1280.53 701.066 1261.64 704.107C1242.68 707.158 1218.46 707.061 1188.78 702.217L1180.67 700.893L1185.14 693.999C1193.98 680.364 1209.6 660.967 1227.92 647.053ZM1285.22 643.249C1269.6 636.08 1251.71 642.468 1234.42 655.601C1220.24 666.368 1207.6 680.866 1198.92 692.884C1223.86 696.3 1244.12 696.055 1259.93 693.509C1277.56 690.671 1289.34 685.04 1296.1 678.804C1302.75 672.673 1304.43 666.189 1302.91 660.529C1301.32 654.609 1295.86 648.134 1285.22 643.249Z" fill="#23522C"/>
<path d="M1190.92 688.866C1186.93 669.212 1192.03 629.654 1244.32 628.658C1309.67 627.412 1221.25 717.932 1190.92 688.866Z" fill="#249038"/>
<path d="M1244.21 623.292C1252.85 623.127 1259.8 624.439 1264.82 627.495C1270.16 630.746 1272.86 635.701 1273.17 641.336C1273.46 646.632 1271.63 652.179 1268.87 657.35C1266.08 662.598 1262.08 667.907 1257.41 672.873C1248.1 682.764 1235.59 691.84 1223.15 696.562C1210.92 701.207 1197.05 702.172 1187.21 692.74L1185.99 691.579L1185.66 689.933C1183.49 679.231 1183.72 662.984 1191.89 649.051C1200.3 634.705 1216.53 623.819 1244.21 623.292ZM1244.42 634.024C1219.82 634.493 1207.36 643.884 1201.15 654.48C1195.1 664.789 1194.43 677.16 1195.86 686.042C1201.23 690.147 1209.31 690.339 1219.34 686.527C1229.97 682.491 1241.17 674.467 1249.59 665.517C1253.78 661.063 1257.15 656.516 1259.4 652.299C1261.69 648.006 1262.59 644.479 1262.45 641.918C1262.33 639.696 1261.45 638.012 1259.24 636.664C1256.7 635.123 1252.12 633.877 1244.42 634.024Z" fill="#10601F"/>
<path d="M1197.89 700.708C1214.17 642.09 1315.25 687.932 1299.66 726.82C1271.67 796.629 1221.24 727.94 1197.89 700.708Z" fill="#249038"/>
<path d="M1221.36 669.434C1234.29 665.689 1249.16 667.401 1262.52 672.141C1275.91 676.889 1288.45 684.908 1296.71 694.611C1304.96 704.291 1309.57 716.534 1304.64 728.817C1297.4 746.883 1288.14 757.446 1276.9 761.121C1265.66 764.798 1254.26 760.978 1244.2 754.71C1234.06 748.397 1224.31 739.013 1215.76 729.729C1207.23 720.468 1199.49 710.817 1193.81 704.202L1191.95 702.029L1192.72 699.271C1197.3 682.77 1208.1 673.275 1221.36 669.434ZM1258.93 682.257C1246.94 678.002 1234.46 676.815 1224.34 679.745C1215.26 682.378 1207.76 688.389 1203.89 699.484C1209.51 706.133 1216.16 714.316 1223.66 722.458C1232.01 731.53 1240.98 740.061 1249.87 745.598C1258.84 751.18 1266.76 753.145 1273.57 750.918C1280.38 748.689 1287.93 741.661 1294.68 724.823C1297.55 717.662 1295.37 709.591 1288.54 701.571C1281.73 693.573 1270.9 686.503 1258.93 682.257Z" fill="#10601F"/>
<path d="M995.729 573.224C998.385 627.769 1030.05 659.961 1044.93 669.002L1040.47 676.341C1023.46 666.005 989.963 631.373 987.152 573.641L995.729 573.224Z" fill="#79A13D"/>
<path d="M1002.97 560.145C1014.51 568.865 1009.38 569.696 991.44 574.263C979.907 603.744 917.542 574.263 927.794 570.111C935.995 566.789 949.152 562.083 954.705 560.145C966.95 557.239 993.747 553.17 1002.97 560.145Z" fill="#97C84C"/>
<path d="M979.739 552.152C984.585 551.889 989.479 551.936 993.849 552.541C998.123 553.133 1002.39 554.322 1005.56 556.72C1008.42 558.88 1010.87 560.986 1012.2 563.11C1012.91 564.247 1013.57 565.809 1013.4 567.645C1013.22 569.57 1012.2 570.996 1011.13 571.957C1009.28 573.616 1006.41 574.639 1003.68 575.465C1001.19 576.22 998.077 577.006 994.51 577.91C990.655 585.635 983.625 589.478 975.949 590.861C967.773 592.335 958.525 591.133 950.34 588.948C942.124 586.755 934.517 583.447 929.505 580.291C927.127 578.794 924.8 577.007 923.515 575.035C922.878 574.058 922.013 572.29 922.515 570.175C923.063 567.862 924.848 566.672 926.182 566.132L927.794 565.485C936.113 562.185 948.077 557.91 953.29 556.091L953.498 556.019L953.713 555.968C960.021 554.47 970.042 552.678 979.739 552.152ZM992.672 561.047C989.04 560.544 984.739 560.481 980.203 560.727C971.238 561.213 961.852 562.876 955.903 564.275C951.098 565.954 941.127 569.518 933.333 572.538C933.564 572.693 933.812 572.856 934.079 573.024C938.237 575.642 945.019 578.64 952.555 580.651C960.121 582.671 967.986 583.571 974.427 582.41C980.706 581.279 985.246 578.31 987.441 572.699L988.244 570.646L990.381 570.103C994.939 568.942 998.484 568.068 1001.19 567.248C1002.23 566.931 1003.08 566.639 1003.76 566.371C1003.04 565.68 1001.96 564.761 1000.38 563.571C998.942 562.481 996.4 561.563 992.672 561.047Z" fill="#79A13D"/>
<path d="M1073.45 653.572C1090.54 648.589 1117.88 662.845 1129.41 670.596C1193.31 724.742 1156.04 752.949 1129.41 760.285C1096.61 760.949 1062.49 788.521 1049.53 802.223C1050.22 787.939 1040.14 742.845 1035.01 722.084C1033.3 669.765 1052.1 659.8 1073.45 653.572Z" fill="#249038"/>
<path d="M1071.95 648.419C1082.26 645.412 1094.79 648.3 1105.4 652.284C1116.27 656.365 1126.35 662.075 1132.4 666.141L1132.65 666.308L1132.88 666.501C1165.2 693.882 1174.18 716.578 1168.48 734.612C1165.7 743.396 1159.64 750.166 1152.78 755.136C1145.92 760.108 1137.98 763.491 1130.84 765.459L1130.19 765.638L1129.52 765.651C1114.47 765.956 1098.7 772.484 1084.82 780.948C1071.01 789.371 1059.61 799.381 1053.43 805.911L1043.48 816.437L1044.17 801.966C1044.32 798.945 1043.88 793.886 1042.96 787.347C1042.05 780.917 1040.71 773.395 1039.18 765.618C1036.13 750.067 1032.35 733.689 1029.8 723.37L1029.66 722.823L1029.65 722.259C1028.77 695.589 1033.07 678.595 1041.25 667.381C1049.5 656.068 1061.02 651.607 1071.95 648.419ZM1101.63 662.333C1091.42 658.498 1081.73 656.748 1074.96 658.724C1064.53 661.764 1055.98 665.4 1049.92 673.707C1043.83 682.053 1039.6 696.061 1040.36 721.366C1042.93 731.835 1046.68 748.074 1049.72 763.548C1051.26 771.425 1052.64 779.151 1053.59 785.842C1053.8 787.379 1054 788.882 1054.17 790.334C1060.86 784.414 1069.48 777.729 1079.24 771.783C1093.66 762.988 1111.07 755.483 1128.59 754.938C1134.59 753.219 1141.04 750.385 1146.48 746.445C1152.1 742.371 1156.36 737.329 1158.24 731.376C1161.85 719.964 1157.55 701.546 1126.17 674.889C1120.66 671.212 1111.44 666.018 1101.63 662.333Z" fill="#10601F"/>
<path d="M1143.66 713.13C1140.29 663.746 1192.38 685.793 1210.63 696.375C1224.44 689.673 1245.16 696.669 1253.17 701.225C1272.54 715.776 1275.09 732.267 1249.82 749.904C1240.14 756.659 1255.13 783.323 1249.82 791.842C1226.68 764.002 1211.22 771.156 1186.62 759.868C1162.03 748.581 1147.45 734.735 1143.66 713.13Z" fill="#97C84C"/>
<path d="M1146.34 684.403C1152.53 678.181 1161.09 676.539 1169.28 676.903C1184.22 677.567 1201.12 685.014 1210.97 690.408C1218.77 687.536 1227.56 687.897 1235.06 689.302C1243.01 690.789 1250.31 693.596 1254.93 696.071L1255.82 696.56L1256.12 696.729L1256.39 696.934C1266.51 704.538 1273.73 713.714 1273.6 724.473C1273.47 735.256 1265.99 745.165 1252.89 754.305C1252.61 754.5 1251.88 755.198 1251.85 758.167C1251.82 761.066 1252.48 764.748 1253.42 769.066C1254.31 773.123 1255.47 777.841 1256.02 781.936C1256.53 785.746 1256.81 790.78 1254.37 794.682L1250.44 800.989L1245.69 795.273C1234.78 782.142 1226 777.558 1217.15 774.767C1212.41 773.271 1207.88 772.344 1202.29 770.91C1196.86 769.517 1190.94 767.754 1184.38 764.746C1159.01 753.101 1142.6 738.135 1138.38 714.057L1138.33 713.778L1138.31 713.495C1137.41 700.355 1140.11 690.649 1146.34 684.403ZM1168.8 687.627C1162.11 687.33 1157.13 688.775 1153.94 691.977C1150.8 695.129 1148.27 701.113 1149 712.478C1152.43 731.458 1165.16 744.112 1188.86 754.99C1194.6 757.626 1199.84 759.202 1204.95 760.512C1209.9 761.782 1215.29 762.922 1220.38 764.529C1228.32 767.033 1236.09 770.802 1244.5 778.439C1244.04 776.24 1243.49 773.884 1242.94 771.358C1242.01 767.1 1241.07 762.317 1241.12 758.051C1241.16 753.854 1242.19 748.686 1246.75 745.503C1258.92 737.007 1262.8 729.851 1262.87 724.342C1262.94 718.864 1259.27 712.595 1250.23 705.732C1246.69 703.777 1240.24 701.192 1233.09 699.853C1225.65 698.46 1218.37 698.584 1212.97 701.203L1210.4 702.449L1207.94 701.018C1199.01 695.841 1182.35 688.229 1168.8 687.627Z" fill="#79A13D"/>
<path d="M1269.04 698.737C1246 718.975 1236.56 834.393 1239.53 848.514C1251.01 903 1371.01 898 1384.16 863.949C1388.53 852.622 1391.1 826.79 1387.05 793.633C1383 760.477 1370.27 726.177 1361.6 709.026C1352.92 691.876 1343.09 694.163 1339.04 694.735C1335.8 695.192 1329.97 700.261 1327.47 702.738C1313.12 699.537 1298.73 701.404 1293.33 702.738C1293.33 695.306 1284.66 685.016 1269.04 698.737Z" fill="url(#paint3_radial_59_32)"/>
<path d="M1272.34 702.493C1279.46 696.235 1283.48 696.713 1285.05 697.393C1287 698.238 1288.33 700.614 1288.33 702.738V709.124L1294.53 707.592C1299.37 706.396 1312.96 704.623 1326.38 707.618L1329.04 708.212L1330.98 706.295C1332.11 705.18 1334.02 703.448 1335.98 701.976C1336.96 701.24 1337.87 700.629 1338.64 700.2C1339.5 699.723 1339.83 699.672 1339.73 699.686C1341.98 699.368 1344.17 698.934 1346.84 699.924C1349.38 700.864 1353.18 703.474 1357.14 711.284C1365.6 728.016 1378.12 761.759 1382.09 794.239C1386.1 827.097 1383.43 851.957 1379.5 862.147C1377.05 868.466 1369 874.522 1356.05 878.819C1343.43 883.006 1327.45 885.069 1311.41 884.437C1295.36 883.803 1279.63 880.484 1267.39 874.245C1255.19 868.027 1246.89 859.172 1244.42 847.483C1244.18 846.305 1243.98 843.456 1244 838.874C1244.02 834.454 1244.23 828.811 1244.64 822.314C1245.46 809.326 1247.06 793.079 1249.48 776.646C1251.89 760.19 1255.1 743.677 1259.08 730.101C1261.08 723.311 1263.24 717.363 1265.54 712.567C1267.87 707.7 1270.19 704.378 1272.34 702.493Z" stroke="#B6A87E" stroke-width="10"/>
<path d="M1297.38 750.187C1297.38 753.975 1294.28 757.047 1290.44 757.047C1286.61 757.047 1283.5 753.975 1283.5 750.187C1283.5 746.398 1286.61 743.327 1290.44 743.327C1294.28 743.327 1297.38 746.398 1297.38 750.187Z" fill="#614A37"/>
<path d="M1315.01 752.473C1315.01 753.052 1315.36 754.442 1316.42 755.956C1317.46 757.425 1319.1 758.922 1321.55 759.805L1320.65 762.291C1317.64 761.204 1315.57 759.337 1314.26 757.474C1313.98 757.072 1313.73 756.666 1313.51 756.264C1311.22 760.147 1307.62 761.591 1305.61 761.791L1305.35 759.163C1306.94 759.003 1310.94 757.427 1312.41 752.12L1315.01 752.473Z" fill="#614A37"/>
<path d="M1343.66 753.617C1343.66 757.405 1340.56 760.477 1336.72 760.477C1332.89 760.477 1329.78 757.405 1329.78 753.617C1329.78 749.828 1332.89 746.757 1336.72 746.757C1340.56 746.757 1343.66 749.828 1343.66 753.617Z" fill="#614A37"/>
</g>
<defs>
<linearGradient id="paint0_linear_59_32" x1="317.5" y1="592" x2="317.5" y2="844" gradientUnits="userSpaceOnUse">
<stop offset="0.581731" stop-color="#83D2BE"/>
<stop offset="1" stop-color="#54A18E"/>
</linearGradient>
<linearGradient id="paint1_linear_59_32" x1="56.459" y1="736.567" x2="56.459" y2="872.944" gradientUnits="userSpaceOnUse">
<stop stop-color="#C3ECF6"/>
<stop offset="1" stop-color="#72C4D9"/>
</linearGradient>
<linearGradient id="paint2_linear_59_32" x1="108.953" y1="0" x2="108.953" y2="128.811" gradientUnits="userSpaceOnUse">
<stop stop-color="#75374F"/>
<stop offset="0.807692" stop-color="#CE8DBA"/>
</linearGradient>
<radialGradient id="paint3_radial_59_32" cx="0" cy="0" r="1" gradientTransform="matrix(-73.8089 127.994 -98.5896 -63.652 1340.28 757.526)" gradientUnits="userSpaceOnUse">
<stop offset="0.621138" stop-color="#FFF2CD"/>
<stop offset="1" stop-color="#C0AD72"/>
</radialGradient>
<clipPath id="clip0_59_32">
<rect width="1440" height="900" fill="white"/>
</clipPath>
</defs>
</svg>
