<svg width="151" height="198" viewBox="0 0 151 198" fill="none" xmlns="http://www.w3.org/2000/svg">
<path d="M30.0362 7.07857C6.99505 27.3173 -2.44131 142.736 0.532379 156.856C12.0072 211.342 132.007 206.342 145.159 172.291C149.534 160.964 152.101 135.132 148.052 101.976C144.002 68.8187 137.638 33.1878 130.5 15.3421C126.5 5.34211 119 -1.65788 109.5 0.342102C100 2.34209 97.5 5.3421 93 9.34206C78.653 6.1407 59.733 9.74626 54.3336 11.0802C54.3336 3.64847 45.656 -6.64147 30.0362 7.07857Z" fill="url(#paint0_radial_186_169)"/>
<path d="M110.53 5.23438C116.384 4.00214 122.172 7.9868 125.857 17.1992C132.723 34.3629 139.034 69.3827 143.089 102.582C147.102 135.44 144.431 160.299 140.495 170.489C138.055 176.807 130.004 182.864 117.052 187.161C104.433 191.348 88.454 193.411 72.4141 192.778C56.3552 192.145 40.6322 188.826 28.3926 182.588C16.1938 176.37 7.88639 167.514 5.4248 155.825C5.17664 154.647 4.9824 151.797 5.00098 147.216C5.01891 142.795 5.22854 137.152 5.6377 130.656C6.45578 117.668 8.06254 101.422 10.4756 84.9883C12.8919 68.5327 16.0979 52.0188 20.085 38.4424C22.079 31.6527 24.2379 25.7043 26.5391 20.9092C28.8748 16.042 31.1907 12.7193 33.3359 10.835C40.4615 4.57609 44.4851 5.05559 46.0537 5.73535C48.005 6.58103 49.3339 8.95537 49.334 11.0801V17.4658L55.5332 15.9346C58.0137 15.3218 63.8463 14.132 70.7734 13.4893C77.7552 12.8414 85.476 12.7858 91.9111 14.2217L94.4092 14.7793L96.3223 13.0791C98.8328 10.8475 100.123 9.53318 102.045 8.31934C103.802 7.20975 106.212 6.14354 110.53 5.23438Z" stroke="#B6A87E" stroke-width="10"/>
<path d="M58.3832 58.5288C58.3832 62.3175 55.2751 65.3888 51.4411 65.3888C47.6071 65.3888 44.499 62.3175 44.499 58.5288C44.499 54.7401 47.6071 51.6688 51.4411 51.6688C55.2751 51.6688 58.3832 54.7401 58.3832 58.5288Z" fill="#614A37"/>
<path d="M76.0074 60.8154C76.0074 61.3936 76.3622 62.7844 77.4247 64.2977C78.4566 65.7673 80.0991 67.2645 82.5497 68.1472L81.6544 70.6336C78.6357 69.5463 76.571 67.6792 75.2626 65.8157C74.9808 65.4143 74.7317 65.0081 74.5135 64.6056C72.2193 68.4892 68.616 69.9327 66.6141 70.1331L66.3509 67.5048C67.9444 67.3454 71.94 65.7695 73.4135 60.462L76.0074 60.8154Z" fill="#614A37"/>
<path d="M104.664 61.9588C104.664 65.7475 101.556 68.8188 97.7217 68.8188C93.8877 68.8188 90.7796 65.7475 90.7796 61.9588C90.7796 58.1701 93.8877 55.0988 97.7217 55.0988C101.556 55.0988 104.664 58.1701 104.664 61.9588Z" fill="#614A37"/>
<defs>
<radialGradient id="paint0_radial_186_169" cx="0" cy="0" r="1" gradientTransform="matrix(-73.8089 128.215 -98.5896 -63.7622 101.282 65.6391)" gradientUnits="userSpaceOnUse">
<stop offset="0.621138" stop-color="#FFF2CD"/>
<stop offset="1" stop-color="#C0AD72"/>
</radialGradient>
</defs>
</svg>
