<svg width="151" height="198" viewBox="0 0 151 198" fill="none" xmlns="http://www.w3.org/2000/svg">
<path d="M30.0362 6.7365C6.99505 26.9752 -2.44131 142.393 0.532379 156.514C12.0072 211 132.007 206 145.159 171.949C149.534 160.622 152.101 134.79 148.052 101.633C144.002 68.4767 131.275 34.1765 122.597 17.0265C113.92 -0.123581 104.085 2.16314 100.036 2.73481C96.7959 3.19215 90.9723 8.26088 88.4654 10.7381C74.1185 7.53674 59.733 9.4042 54.3336 10.7381C54.3336 3.30641 45.656 -6.98354 30.0362 6.7365Z" fill="url(#paint0_radial_24_57)"/>
<path d="M33.3359 10.4932C40.4612 4.23452 44.4849 4.71287 46.0537 5.39258C48.005 6.23827 49.334 8.61355 49.334 10.7383V17.124L55.5332 15.5918C60.3735 14.3961 73.9558 12.6234 87.377 15.6182L90.0391 16.2119L91.9795 14.2949C93.1078 13.1799 95.0206 11.4478 96.9795 9.97559C97.9588 9.23959 98.8694 8.62923 99.6416 8.2002C100.5 7.72326 100.833 7.67159 100.734 7.68555C102.985 7.36787 105.173 6.9341 107.844 7.92383C110.38 8.8639 114.184 11.4738 118.136 19.2842C126.602 36.0163 139.122 69.7589 143.089 102.239C147.102 135.097 144.431 159.957 140.495 170.147C138.055 176.466 130.004 182.522 117.052 186.819C104.433 191.006 88.4539 193.069 72.4141 192.437C56.3551 191.803 40.6322 188.484 28.3926 182.245C16.1939 176.027 7.88642 167.172 5.4248 155.483C5.17663 154.305 4.9824 151.456 5.00098 146.874C5.01891 142.454 5.22854 136.811 5.6377 130.314C6.45578 117.326 8.06251 101.079 10.4756 84.6455C12.8918 68.1901 16.0979 51.6769 20.085 38.1006C22.079 31.3109 24.2379 25.3625 26.5391 20.5674C28.8749 15.7002 31.1907 12.3775 33.3359 10.4932Z" stroke="#B6A87E" stroke-width="10"/>
<path d="M58.3832 58.1867C58.3832 61.9754 55.2751 65.0467 51.4411 65.0467C47.6071 65.0467 44.499 61.9754 44.499 58.1867C44.499 54.398 47.6071 51.3267 51.4411 51.3267C55.2751 51.3267 58.3832 54.398 58.3832 58.1867Z" fill="#614A37"/>
<path d="M76.0075 60.4733C76.0075 61.0515 76.3624 62.4423 77.4249 63.9556C78.4567 65.4252 80.0992 66.9224 82.5498 67.8051L81.6545 70.2915C78.6358 69.2042 76.5712 67.3371 75.2627 65.4736C74.9809 65.0722 74.7318 64.666 74.5137 64.2635C72.2194 68.1471 68.6161 69.5906 66.6142 69.791L66.3511 67.1627C67.9445 67.0033 71.9401 65.4274 73.4137 60.1199L76.0075 60.4733Z" fill="#614A37"/>
<path d="M104.664 61.6167C104.664 65.4054 101.556 68.4767 97.7219 68.4767C93.8879 68.4767 90.7798 65.4054 90.7798 61.6167C90.7798 57.828 93.8879 54.7567 97.7219 54.7567C101.556 54.7567 104.664 57.828 104.664 61.6167Z" fill="#614A37"/>
<defs>
<radialGradient id="paint0_radial_24_57" cx="0" cy="0" r="1" gradientTransform="matrix(-73.8089 127.994 -98.5896 -63.652 101.282 65.5257)" gradientUnits="userSpaceOnUse">
<stop offset="0.621138" stop-color="#FFF2CD"/>
<stop offset="1" stop-color="#C0AD72"/>
</radialGradient>
</defs>
</svg>
