<svg width="167" height="291" viewBox="0 0 167 291" fill="none" xmlns="http://www.w3.org/2000/svg">
<path d="M131.217 247.542L113.73 244.925L138.193 77.6989L159.189 80.6383L131.217 247.542Z" fill="#F1CE65" stroke="#90795D" stroke-width="4"/>
<path d="M154.107 46.3049L161.5 78.9437L136.5 75.4436L154.107 46.3049Z" fill="#F5DEB3"/>
<mask id="mask0_24_31" style="mask-type:alpha" maskUnits="userSpaceOnUse" x="136" y="46" width="26" height="33">
<path d="M154.107 46.3049L161.5 78.9437L136.5 75.4436L154.107 46.3049Z" fill="#F5DEB3"/>
</mask>
<g mask="url(#mask0_24_31)">
<path d="M155.381 38.7771L163.864 63.2026L138.304 59.3767L155.381 38.7771Z" fill="black"/>
</g>
<path d="M143.085 252.521L126.608 256.937L70.6736 46.7767L90.4054 41.2237L143.085 252.521Z" fill="#D3B55B" stroke="#90795D" stroke-width="4"/>
<path d="M70.2795 3.19106L91.8476 38.7417L68.2335 45.3864L70.2795 3.19106Z" fill="#F5DEB3"/>
<mask id="mask1_24_31" style="mask-type:alpha" maskUnits="userSpaceOnUse" x="68" y="3" width="24" height="43">
<path d="M70.2795 3.19106L91.8476 38.7417L68.2335 45.3864L70.2795 3.19106Z" fill="#F5DEB3"/>
</mask>
<g mask="url(#mask1_24_31)">
<path d="M67.9271 -6.29546L86.6635 19.0349L62.4065 25.5345L67.9271 -6.29546Z" fill="black"/>
</g>
<path fill-rule="evenodd" clip-rule="evenodd" d="M31.6149 48.0997C38.4234 47.1796 44.2661 50.4151 49.0681 55.5727C53.9022 60.765 57.9803 68.1907 61.3702 76.3918C66.9893 89.986 62.7187 104.771 70.1706 118.25C73.4489 124.179 76.8293 118.263 76.8928 116.555C77.0517 112.282 76.8928 113.232 75.5484 101.308C71.515 84.3673 73.1512 71.4625 76.8928 66.579C82.5602 58.8933 88.0552 53.2279 102.594 59.2893C119.153 66.1938 122.409 81.8624 119.094 93.9468C116.298 104.141 109.371 114.944 100.053 130.46C96.5016 136.373 94.4948 144.346 93.4705 152.062C92.4509 159.743 92.4311 166.957 92.7212 171.208L92.8306 172.816L91.2201 173.344C85.7783 175.13 77.6807 177.308 71.1787 177.95C68.0071 178.264 64.8189 178.259 62.5011 177.38C61.2831 176.917 60.1096 176.138 59.4393 174.864C58.7677 173.587 58.7855 172.165 59.1978 170.774C59.6764 169.158 59.5712 167.087 58.887 164.707C58.2091 162.349 57.0062 159.841 55.4979 157.449C53.9921 155.061 52.2162 152.843 50.437 151.062C48.6306 149.254 46.9351 148.01 45.6177 147.427C31.0129 140.971 20.4878 126.649 13.5682 113.232C6.63964 99.7979 3.05087 86.7226 2.65604 82.1516C0.764265 60.2465 16.4613 48.1858 31.6149 48.0997ZM45.6177 74.9437C45.6177 64.4437 33.4177 57.0011 25.5005 60.6716C16.3418 66.024 14.8418 77.1179 16.8418 88.1179C16.1248 95.9105 34.762 126.318 39.8412 128.86C59.2011 135.636 60.5005 113.444 52.5005 105.444C44.5005 97.4437 46.6177 81.2922 45.6177 74.9437ZM106.619 85.7922C104.206 69.8269 95.7908 70.7872 91.2201 72.2409C81.8983 75.2056 80.5539 100.194 97.6561 104.427C106.619 104.427 107.451 91.2981 106.619 85.7922Z" fill="#2F7673"/>
<path fill-rule="evenodd" clip-rule="evenodd" d="M31.6149 48.0997C38.4234 47.1796 44.2661 50.4151 49.0681 55.5727C53.9022 60.765 57.9803 68.1907 61.3702 76.3918C66.9893 89.986 62.7187 104.771 70.1706 118.25C73.4489 124.179 76.8293 118.263 76.8928 116.555C77.0517 112.282 76.8928 113.232 75.5484 101.308C71.515 84.3673 73.1512 71.4625 76.8928 66.579C82.5602 58.8933 88.0552 53.2279 102.594 59.2893C119.153 66.1938 122.409 81.8624 119.094 93.9468C116.298 104.141 109.371 114.944 100.053 130.46C96.5016 136.373 94.4948 144.346 93.4705 152.062C92.4509 159.743 92.4311 166.957 92.7212 171.208L92.8306 172.816L91.2201 173.344C85.7783 175.13 77.6807 177.308 71.1787 177.95C68.0071 178.264 64.8189 178.259 62.5011 177.38C61.2831 176.917 60.1096 176.138 59.4393 174.864C58.7677 173.587 58.7855 172.165 59.1978 170.774C59.6764 169.158 59.5712 167.087 58.887 164.707C58.2091 162.349 57.0062 159.841 55.4979 157.449C53.9921 155.061 52.2162 152.843 50.437 151.062C48.6306 149.254 46.9351 148.01 45.6177 147.427C31.0129 140.971 20.4878 126.649 13.5682 113.232C6.63964 99.7979 3.05087 86.7226 2.65604 82.1516C0.764265 60.2465 16.4613 48.1858 31.6149 48.0997ZM45.6177 74.9437C45.6177 64.4437 33.4177 57.0011 25.5005 60.6716C16.3418 66.024 14.8418 77.1179 16.8418 88.1179C16.1248 95.9105 34.762 126.318 39.8412 128.86C59.2011 135.636 60.5005 113.444 52.5005 105.444C44.5005 97.4437 46.6177 81.2922 45.6177 74.9437ZM106.619 85.7922C104.206 69.8269 95.7908 70.7872 91.2201 72.2409C81.8983 75.2056 80.5539 100.194 97.6561 104.427C106.619 104.427 107.451 91.2981 106.619 85.7922Z" stroke="#1B4D4A" stroke-width="5"/>
<path d="M97.6561 104.427C80.5539 100.194 81.8983 75.2056 91.2201 72.2409C95.7908 70.7872 104.206 69.8269 106.619 85.7922C107.451 91.2981 106.619 104.427 97.6561 104.427Z" stroke="#1B4D4A" stroke-width="5"/>
<path d="M45.6177 74.9437C45.6177 64.4437 33.4177 57.0011 25.5005 60.6716C16.3418 66.024 14.8418 77.1179 16.8418 88.1179C16.1248 95.9105 34.762 126.318 39.8412 128.86C59.2011 135.636 60.5005 113.444 52.5005 105.444C44.5005 97.4437 46.6177 81.2922 45.6177 74.9437Z" stroke="#1B4D4A" stroke-width="5"/>
<path d="M161.182 159.567V272.944C161.182 280.124 155.361 285.944 148.182 285.944H49.7375C42.558 285.944 36.7378 280.124 36.7375 272.944V159.567H161.182Z" fill="url(#paint0_linear_24_31)" stroke="#50A3B8" stroke-width="10"/>
<defs>
<linearGradient id="paint0_linear_24_31" x1="98.9595" y1="154.567" x2="98.9595" y2="290.944" gradientUnits="userSpaceOnUse">
<stop stop-color="#C3ECF6"/>
<stop offset="1" stop-color="#72C4D9"/>
</linearGradient>
</defs>
</svg>
