<svg width="365" height="286" viewBox="0 0 365 286" fill="none" xmlns="http://www.w3.org/2000/svg">
<style>
  .plant-group {
    transform-origin: 129px 286px;
    cursor: pointer;
  }
  .plant-group.swaying {
    animation: sway 3s ease-in-out infinite;
  }
  @keyframes sway {
    0%   { transform: rotate(0deg); }
    25%  { transform: rotate(2deg); }
    75%  { transform: rotate(-2deg); }
    100% { transform: rotate(0deg); }
  }
</style>
<g class="plant-group">
<rect x="33.0044" y="171" width="193" height="110" rx="40" fill="url(#paint0_linear_32_141)" stroke="#9a345bff" stroke-width="10"/>
<path d="M207.141 64.6846C218.865 56.7292 232.833 53.7871 242.955 53.6203C242.955 110.561 205.284 126.601 186.449 127.504C180.11 94.4077 191.672 75.1819 207.141 64.6846Z" fill="#97C84C"/>
<path d="M242.873 48.6213C232.013 48.8002 217.037 51.9267 204.333 60.5471C195.882 66.2817 188.412 74.473 183.963 85.7902C179.52 97.0934 178.227 111.161 181.538 128.445L182.354 132.705L186.688 132.498C197.178 131.996 212.486 127.35 225.218 115.193C238.092 102.9 247.955 83.2908 247.955 53.6203V48.5373L242.873 48.6213ZM237.836 58.9484C236.748 83.1162 228.27 98.4526 218.313 107.96C209.251 116.613 198.69 120.699 190.595 122.031C188.612 108.414 190.004 97.7572 193.27 89.4494C196.884 80.2556 202.93 73.585 209.949 68.8224C218.82 62.8024 229.203 59.8736 237.836 58.9484Z" fill="#79A13D"/>
<path d="M128.748 144.911C213.429 155.123 216.294 95.6818 207.141 64.6846C160.662 51.5645 132.86 59.2179 124.768 64.6847C79.2446 102.316 108.453 133.848 128.748 144.911Z" fill="#287536"/>
<path d="M208.5 59.873C184.767 53.1737 165.619 51.7258 151.213 52.7265C137.407 53.6856 127.642 56.9209 122.457 60.2216L121.97 60.5419L121.769 60.6767L121.583 60.831C109.759 70.6052 102.427 80.2769 98.6845 89.6933C94.911 99.1891 94.8995 108.158 97.2831 116.185C101.961 131.938 115.626 143.453 126.354 149.301L127.197 149.76L128.149 149.875C171.663 155.122 195.939 142.558 207.454 122.766C218.593 103.619 216.701 79.4059 211.936 63.2685L211.155 60.622L208.5 59.873ZM151.906 62.7031C164.519 61.8269 181.605 62.9784 203.077 68.7529C206.843 83.3855 207.452 102.884 198.81 117.737C190.08 132.743 170.819 144.719 130.311 140.058C120.943 134.739 110.383 125.172 106.869 113.338C105.104 107.395 105.058 100.733 107.977 93.3867C110.91 86.0078 116.941 77.6854 127.75 68.7089C130.924 66.6513 138.87 63.6086 151.906 62.7031Z" fill="#23522C"/>
<path d="M116.014 135.006C99.9639 110.249 59.2683 64.6815 24.8867 80.464C-18.0904 100.192 6.97955 152.8 116.014 135.006Z" fill="#287536"/>
<path d="M80.3489 88.5506C63.5039 75.758 42.6326 66.8166 22.8011 75.9197C11.2259 81.2331 3.33352 89.1759 0.831345 98.5174C-1.73569 108.101 1.72586 117.799 10.0569 125.481C18.281 133.065 31.3375 138.869 48.9378 141.702C66.6009 144.545 89.1681 144.454 116.82 139.941L124.373 138.708L120.209 132.286C111.974 119.583 97.4184 101.514 80.3489 88.5506ZM26.9729 85.0076C41.5229 78.3289 58.1907 84.2798 74.3011 96.5145C87.5083 106.544 99.2845 120.051 107.371 131.247C84.1357 134.429 65.2648 134.201 50.5276 131.829C34.1047 129.186 23.1358 123.94 16.8353 118.13C10.6421 112.419 9.07933 106.378 10.4915 101.105C11.9687 95.5903 17.0596 89.5582 26.9729 85.0076Z" fill="#23522C"/>
<path d="M114.82 127.504C118.534 109.194 113.786 72.3426 65.0782 71.4142C4.194 70.2537 86.5667 154.581 114.82 127.504Z" fill="#249038"/>
<path d="M65.1733 66.415C57.126 66.2617 50.6552 67.4838 45.977 70.331C41.0016 73.3592 38.4842 77.9757 38.1987 83.2246C37.9304 88.1586 39.6314 93.3263 42.1997 98.1435C44.8061 103.032 48.5284 107.978 52.8813 112.604C61.5509 121.819 73.2059 130.274 84.7915 134.674C96.1862 139.001 109.112 139.9 118.28 131.113L119.41 130.031L119.72 128.498C121.743 118.528 121.53 103.392 113.92 90.4121C106.085 77.0478 90.9625 66.9066 65.1733 66.415ZM64.9829 76.4131C87.9008 76.8499 99.5061 85.5989 105.293 95.4697C110.924 105.074 111.549 116.598 110.216 124.873C105.217 128.697 97.6921 128.876 88.3413 125.325C78.4389 121.565 68.009 114.089 60.1645 105.752C56.2603 101.602 53.118 97.3665 51.0239 93.4385C48.8915 89.4388 48.0544 86.153 48.184 83.7676C48.2967 81.6973 49.1134 80.1285 51.1762 78.873C53.5365 77.4366 57.8095 76.2764 64.9829 76.4131Z" fill="#10601F"/>
<path d="M108.33 138.536C93.1618 83.9271 -1.00424 126.634 13.5201 162.861C39.5933 227.895 86.5716 163.905 108.33 138.536Z" fill="#249038"/>
<path d="M86.4658 109.401C74.4213 105.912 60.5674 107.507 48.1191 111.923C35.6495 116.346 23.9666 123.816 16.2675 132.856C8.58625 141.874 4.2916 153.28 8.87886 164.722C15.6265 181.552 24.2496 191.393 34.7197 194.816C45.1959 198.242 55.8117 194.683 65.1865 188.844C74.6281 182.963 83.7191 174.221 91.6816 165.571C99.6239 156.944 106.84 147.954 112.125 141.791L113.861 139.767L113.147 137.197C108.877 121.825 98.8151 112.979 86.4658 109.401ZM51.4619 121.347C62.6355 117.383 74.2598 116.277 83.6835 119.007C92.1489 121.459 99.1289 127.06 102.737 137.396C97.5027 143.589 91.3071 151.213 84.3242 158.798C76.5439 167.249 68.1812 175.197 59.8994 180.356C51.5508 185.556 44.1732 187.386 37.8281 185.312C31.477 183.235 24.4499 176.687 18.1611 161.001C15.4864 154.33 17.5162 146.811 23.8798 139.34C30.2259 131.889 40.3095 125.303 51.4619 121.347Z" fill="#10601F"/>
<path d="M296.661 19.7723C294.186 70.5861 264.691 100.576 250.827 108.999L254.98 115.836C270.829 106.207 302.032 73.944 304.651 20.1609L296.661 19.7723Z" fill="#79A13D"/>
<path d="M289.912 7.58823C279.168 15.7115 283.943 16.4852 300.656 20.7403C311.4 48.2048 369.499 20.7403 359.949 16.872C352.308 13.7774 340.052 9.3934 334.879 7.58823C323.471 4.88046 298.507 1.08959 289.912 7.58823Z" fill="#97C84C"/>
<path d="M311.557 0.141595C307.042 -0.10316 302.483 -0.0598326 298.412 0.503899C294.43 1.05527 290.455 2.16313 287.5 4.39745C284.839 6.4093 282.555 8.3712 281.317 10.3496C280.654 11.4093 280.039 12.8643 280.201 14.5752C280.371 16.3677 281.318 17.6966 282.316 18.5918C284.039 20.1375 286.715 21.0899 289.254 21.8603C291.571 22.5632 294.474 23.2954 297.796 24.1377C301.388 31.334 307.936 34.9144 315.087 36.2031C322.704 37.5756 331.32 36.456 338.945 34.4209C346.598 32.378 353.686 29.2956 358.355 26.3555C360.57 24.9611 362.738 23.2965 363.935 21.459C364.528 20.5492 365.334 18.9021 364.867 16.9316C364.356 14.777 362.693 13.6684 361.451 13.165L359.949 12.5625C352.199 9.48872 341.053 5.50597 336.197 3.81152L336.003 3.74413L335.802 3.69628C329.926 2.30137 320.591 0.631298 311.557 0.141595ZM299.508 8.42773C302.892 7.95917 306.898 7.90078 311.125 8.12988C319.476 8.58263 328.22 10.1319 333.762 11.4355C338.238 12.9998 347.528 16.3201 354.789 19.1328C354.573 19.2775 354.342 19.4293 354.093 19.5859C350.22 22.025 343.901 24.8177 336.881 26.6914C329.833 28.5728 322.505 29.4114 316.505 28.3301C310.656 27.2759 306.426 24.5104 304.381 19.2832L303.633 17.3701L301.643 16.8643C297.397 15.7832 294.094 14.9687 291.577 14.2051C290.601 13.9092 289.81 13.6376 289.175 13.3877C289.851 12.7443 290.859 11.8878 292.325 10.7793C293.667 9.76439 296.036 8.90868 299.508 8.42773Z" fill="#79A13D"/>
<path d="M224.252 94.6237C208.335 89.9818 182.867 103.263 172.123 110.483C112.592 160.925 147.318 187.204 172.123 194.038C202.684 194.656 234.466 220.342 246.537 233.107C245.9 219.8 255.291 177.791 260.067 158.45C261.658 109.71 244.149 100.426 224.252 94.6237Z" fill="#249038"/>
<path d="M225.652 89.8238C216.045 87.0224 204.374 89.7123 194.49 93.4244C184.367 97.2258 174.971 102.546 169.334 106.334L169.103 106.489L168.891 106.669C138.786 132.177 130.418 153.321 135.73 170.121C138.317 178.304 143.963 184.611 150.353 189.241C156.745 193.872 164.139 197.024 170.794 198.858L171.397 199.024L172.022 199.037C186.038 199.321 200.73 205.402 213.661 213.287C226.53 221.134 237.151 230.459 242.904 236.543L252.176 246.348L251.531 232.868C251.396 230.053 251.799 225.34 252.662 219.249C253.51 213.258 254.755 206.251 256.178 199.005C259.024 184.519 262.548 169.261 264.921 159.648L265.047 159.138L265.064 158.613C265.875 133.767 261.876 117.935 254.257 107.489C246.57 96.9496 235.835 92.7934 225.652 89.8238ZM198.005 102.786C207.52 99.2127 216.542 97.5831 222.853 99.4234C232.567 102.256 240.534 105.643 246.178 113.381C251.849 121.157 255.792 134.207 255.083 157.781C252.684 167.533 249.198 182.662 246.366 197.078C244.924 204.415 243.643 211.613 242.76 217.846C242.557 219.278 242.376 220.678 242.214 222.031C235.989 216.516 227.952 210.288 218.867 204.749C205.43 196.556 189.211 189.564 172.889 189.056C167.3 187.454 161.286 184.814 156.221 181.144C150.984 177.349 147.018 172.652 145.264 167.106C141.903 156.474 145.91 139.317 175.138 114.483C180.275 111.058 188.864 106.219 198.005 102.786Z" fill="#10601F"/>
<path d="M158.846 150.108C161.984 104.102 113.463 124.641 96.4607 134.499C83.5912 128.255 64.2874 134.773 56.8325 139.017C38.7838 152.573 36.4085 167.936 59.9513 184.367C68.9685 190.66 55.0045 215.5 59.9513 223.436C81.5045 197.5 95.9114 204.165 118.825 193.649C141.739 183.134 155.314 170.236 158.846 150.108Z" fill="#97C84C"/>
<path d="M156.355 123.346C150.581 117.55 142.615 116.02 134.984 116.359C121.063 116.978 105.323 123.915 96.1434 128.94C88.8774 126.265 80.6851 126.601 73.6962 127.91C66.2981 129.296 59.4915 131.911 55.1854 134.216L54.3583 134.672L54.0829 134.829L53.83 135.02C44.3981 142.103 37.6731 150.652 37.7958 160.675C37.9188 170.721 44.8884 179.951 57.0897 188.467C57.3492 188.648 58.0304 189.299 58.0604 192.065C58.0897 194.765 57.4715 198.195 56.5927 202.218C55.7669 205.997 54.6854 210.393 54.1766 214.207C53.7032 217.757 53.442 222.446 55.7079 226.081L59.371 231.957L63.7968 226.632C73.9618 214.4 82.1403 210.129 90.3827 207.528C94.798 206.135 99.0245 205.271 104.232 203.936C109.292 202.638 114.806 200.995 120.911 198.193C144.55 187.345 159.835 173.402 163.77 150.972L163.816 150.712L163.834 150.448C164.669 138.207 162.152 129.165 156.355 123.346ZM135.429 126.35C141.661 126.073 146.298 127.419 149.27 130.402C152.195 133.339 154.551 138.913 153.874 149.501C150.678 167.182 138.821 178.971 116.74 189.105C111.389 191.56 106.508 193.028 101.748 194.249C97.1367 195.432 92.1184 196.494 87.3739 197.991C79.9809 200.324 72.7382 203.835 64.9071 210.949C65.3364 208.901 65.8478 206.707 66.3622 204.353C67.2288 200.386 68.1026 195.931 68.0594 191.956C68.017 188.046 67.0615 183.232 62.8124 180.267C51.4713 172.352 47.8577 165.685 47.7948 160.553C47.7323 155.45 51.1476 149.609 59.5712 143.216C62.8621 141.395 68.8764 138.986 75.536 137.739C82.4654 136.442 89.2482 136.557 94.2782 138.997L96.6698 140.157L98.9686 138.824C107.286 134.002 122.805 126.911 135.429 126.35Z" fill="#79A13D"/>
</g>
<defs>
<linearGradient id="paint0_linear_32_141" x1="129.504" y1="166" x2="129.504" y2="286" gradientUnits="userSpaceOnUse">
<stop stop-color="#75374F"/>
<stop offset="0.807692" stop-color="#CE8DBA"/>
</linearGradient>
</defs>
</svg>