<svg width="467" height="252" viewBox="0 0 467 252" fill="none" xmlns="http://www.w3.org/2000/svg">
<path d="M0 0H467V232H0V0Z" fill="#72BFAB"/>
<path d="M467 0V232H0V0H467ZM10 222H457V10H10V222Z" fill="#4C8476"/>
<path d="M196 32H395V140H196V32Z" fill="#C3ECF6"/>
<path d="M395 32V140H196V32H395ZM202 134H389V38H202V134Z" fill="#86D7EB"/>
<path d="M247 53H430V142H247V53Z" fill="#595A96"/>
<path d="M430 53V142H247V53H430ZM253 136H424V59H253V136Z" fill="#36375A"/>
<path d="M0 145C0 133.954 8.95431 125 20 125H447C458.046 125 467 133.954 467 145V232C467 243.046 458.046 252 447 252H20C8.9543 252 0 243.046 0 232V145Z" fill="url(#paint0_linear_24_27)"/>
<path d="M447 242V252H20L20 242H447ZM457 232V145C457 139.477 452.523 135 447 135H20C14.4772 135 10 139.477 10 145V232C10 237.523 14.4772 242 20 242L20 252L19.4834 251.993C8.67646 251.719 0 242.873 0 232V145C0 134.127 8.67646 125.281 19.4834 125.007L20 125H447C458.046 125 467 133.954 467 145V232C467 243.046 458.046 252 447 252V242C452.523 242 457 237.523 457 232Z" fill="#4C8476"/>
<path d="M346.787 189.38C349.558 188.544 351.789 191.73 350.056 194.048L344.348 201.684C343.572 202.721 343.55 204.14 344.293 205.201L349.778 213.034C351.45 215.422 349.077 218.551 346.326 217.585L337.423 214.457C336.186 214.023 334.811 214.442 334.026 215.492L328.387 223.035C326.649 225.36 322.951 224.108 322.984 221.205L323.093 211.584C323.107 210.298 322.3 209.146 321.087 208.719L312.009 205.531C309.27 204.569 309.358 200.666 312.137 199.828L321.154 197.109C322.409 196.73 323.273 195.581 323.288 194.27L323.394 184.835C323.427 181.919 327.179 180.759 328.851 183.148L334.336 190.98C335.079 192.042 336.419 192.506 337.66 192.132L346.787 189.38Z" fill="#FFEAAD"/>
<path d="M346.787 189.38C349.558 188.544 351.789 191.73 350.056 194.048L344.348 201.684C343.621 202.657 343.555 203.964 344.162 204.998L344.293 205.201L349.778 213.034C351.45 215.422 349.077 218.551 346.326 217.585L337.423 214.457C336.186 214.023 334.811 214.442 334.026 215.492L328.387 223.035C326.703 225.287 323.181 224.182 322.992 221.473L322.984 221.205L323.093 211.584C323.107 210.298 322.3 209.146 321.087 208.719L312.009 205.531L311.76 205.432C309.358 204.363 309.436 200.875 311.884 199.915L312.137 199.828L321.154 197.109C322.409 196.73 323.273 195.581 323.288 194.27L323.394 184.835C323.426 182.01 326.948 180.833 328.689 182.934L328.851 183.148L334.336 190.98C335.033 191.975 336.254 192.446 337.426 192.192L337.66 192.132L346.787 189.38ZM338.526 195.004C336.045 195.752 333.365 194.823 331.879 192.701L326.394 184.868L326.287 194.304C326.258 196.925 324.53 199.225 322.02 199.982L313.003 202.7L322.081 205.889C324.508 206.741 326.121 209.045 326.092 211.617L325.984 221.239L331.623 213.696C333.192 211.596 335.944 210.758 338.417 211.627L347.32 214.754L341.836 206.921C340.35 204.799 340.394 201.962 341.945 199.887L347.653 192.252L338.526 195.004Z" fill="#ECC847"/>
<path d="M404.932 145.962C406.602 143.599 410.319 144.735 410.382 147.628L410.696 162.177C410.724 163.472 411.58 164.602 412.818 164.981L426.825 169.263C429.614 170.116 429.67 174.044 426.906 174.975L413.176 179.601C411.934 180.02 411.107 181.197 411.135 182.509L411.446 196.934C411.509 199.836 407.825 201.127 406.063 198.82L397.147 187.149C396.366 186.128 395.023 185.717 393.805 186.128L379.886 190.817C377.136 191.744 374.804 188.614 376.478 186.243L384.803 174.458C385.56 173.387 385.533 171.948 384.736 170.906L375.941 159.394C374.17 157.076 376.413 153.851 379.202 154.703L393.209 158.986C394.447 159.364 395.789 158.906 396.536 157.848L404.932 145.962Z" fill="#FFA7E9"/>
<path d="M404.932 145.962C406.602 143.599 410.319 144.735 410.382 147.628L410.696 162.177C410.722 163.391 411.476 164.461 412.591 164.902L412.818 164.981L426.825 169.263C429.614 170.116 429.67 174.044 426.906 174.975L413.176 179.601L412.948 179.688C411.833 180.168 411.108 181.28 411.135 182.509L411.446 196.934C411.509 199.836 407.825 201.127 406.063 198.82L397.147 187.149C396.366 186.128 395.023 185.717 393.805 186.128L379.886 190.817L379.629 190.893C377.079 191.528 374.994 188.73 376.333 186.468L376.478 186.243L384.803 174.458C385.56 173.387 385.533 171.948 384.736 170.906L375.941 159.394C374.226 157.149 376.277 154.052 378.942 154.636L379.202 154.703L393.209 158.986L393.442 159.047C394.535 159.288 395.673 158.898 396.389 158.039L396.536 157.848L404.932 145.962ZM398.987 159.578C397.493 161.694 394.808 162.612 392.331 161.855L378.325 157.573L387.121 169.085C388.713 171.169 388.767 174.047 387.254 176.189L378.929 187.974L392.847 183.285C395.283 182.465 397.97 183.286 399.53 185.328L408.447 196.999L408.135 182.573C408.079 179.951 409.733 177.596 412.218 176.758L425.948 172.133L411.941 167.85C409.464 167.093 407.752 164.831 407.697 162.241L407.383 147.692L398.987 159.578Z" fill="#D56EBB"/>
<path d="M54.5116 94.1578C58.6494 76.2477 52.2129 44.4076 54.5116 26L136.809 26C143.357 26 140.027 81.7202 140.946 102.615C111.675 106.43 51.5462 106.993 54.5116 94.1578Z" fill="#FFEAAD"/>
<path d="M136.809 23C138.425 23 139.572 23.9002 140.253 24.7393C140.908 25.5455 141.347 26.5315 141.666 27.46C142.313 29.3436 142.751 31.867 143.069 34.6982C143.711 40.4186 143.938 48.1738 143.988 56.4541C144.091 73.2264 143.486 92.0847 143.943 102.483L144.064 105.234L141.334 105.59C126.525 107.52 103.991 108.623 85.4785 107.626C76.2563 107.129 67.8179 106.102 61.793 104.306C58.8147 103.418 56.1213 102.256 54.2305 100.648C52.2097 98.9299 50.8994 96.4667 51.5889 93.4824C53.5396 85.0387 53.0188 73.07 52.207 60.458C51.4137 48.1322 50.341 35.1909 51.5352 25.6279L51.8633 23H136.809ZM57.2275 29C56.5733 37.5524 57.4576 48.6124 58.1953 60.0732C58.9926 72.4605 59.6216 85.3668 57.4346 94.833C57.3827 95.0576 57.303 95.3847 58.1172 96.0771C59.0613 96.8801 60.8079 97.7511 63.5068 98.5557C68.8366 100.145 76.7039 101.145 85.8018 101.635C102.836 102.552 123.435 101.648 137.858 99.9717C137.585 89.0614 138.08 71.4553 137.988 56.4902C137.938 48.2286 137.711 40.7473 137.107 35.3672C136.802 32.6485 136.419 30.6553 135.991 29.4102C135.937 29.2527 135.885 29.1165 135.837 29H57.2275Z" fill="#ECC847"/>
<defs>
<linearGradient id="paint0_linear_24_27" x1="233.5" y1="0" x2="233.5" y2="252" gradientUnits="userSpaceOnUse">
<stop offset="0.581731" stop-color="#83D2BE"/>
<stop offset="1" stop-color="#54A18E"/>
</linearGradient>
</defs>
</svg>
