<svg width="467" height="252" viewBox="0 0 467 252" fill="none" xmlns="http://www.w3.org/2000/svg">
<path d="M0 0H467V232H0V0Z" fill="#72BFAB"/>
<path d="M467 0V232H0V0H467ZM10 222H457V10H10V222Z" fill="#4C8476"/>
<path d="M196 32H395V140H196V32Z" fill="#C3ECF6"/>
<path d="M395 32V140H196V32H395ZM202 134H389V38H202V134Z" fill="#86D7EB"/>
<path d="M247 53H430V142H247V53Z" fill="#595A96"/>
<path d="M430 53V142H247V53H430ZM253 136H424V59H253V136Z" fill="#36375A"/>
<path d="M0 145C0 133.954 8.95431 125 20 125H447C458.046 125 467 133.954 467 145V188.5V232C467 243.046 458.046 252 447 252H20C8.9543 252 0 243.046 0 232V145Z" fill="url(#paint0_linear_186_168)"/>
<path d="M447 242V252H20L20 242H447ZM457 232V145C457 139.477 452.523 135 447 135H20C14.4772 135 10 139.477 10 145V232C10 237.523 14.4772 242 20 242L20 252L19.4834 251.993C8.67646 251.719 0 242.873 0 232V145C0 134.127 8.67646 125.281 19.4834 125.007L20 125H447C458.046 125 467 133.954 467 145V188.5V232C467 243.046 458.046 252 447 252V242C452.523 242 457 237.523 457 232Z" fill="#4C8476"/>
<path d="M149.519 188.66C149.11 187.024 151.024 185.813 152.327 186.883L162.288 195.062C163.706 196.225 165.71 196.349 167.259 195.368L178.224 188.428C179.662 187.518 181.421 188.989 180.78 190.566L175.962 202.423C175.261 204.147 175.764 206.126 177.202 207.307L187.051 215.395C188.359 216.469 187.532 218.589 185.843 218.494L172.829 217.762C171.016 217.66 169.338 218.722 168.654 220.405L163.746 232.479C163.109 234.047 160.838 233.887 160.427 232.246L157.334 219.883C156.882 218.077 155.308 216.776 153.45 216.671L140.671 215.952C138.972 215.856 138.396 213.637 139.834 212.726L150.798 205.786C152.348 204.806 153.093 202.942 152.648 201.164L149.519 188.66Z" fill="#E1C1FF" stroke="#A273CF" stroke-width="2.5"/>
<path d="M108.518 157.223C109.529 155.873 111.676 156.593 111.669 158.28L111.643 164.082C111.635 165.916 112.803 167.548 114.541 168.131L120.024 169.97C121.638 170.511 121.608 172.804 119.98 173.302L114.582 174.953C112.803 175.498 111.584 177.137 111.576 178.998L111.55 184.656C111.542 186.348 109.375 187.045 108.382 185.674L104.934 180.91C103.868 179.439 101.985 178.808 100.248 179.339L94.6246 181.06C93.0063 181.555 91.6975 179.693 92.7112 178.338L96.1015 173.809C97.2167 172.319 97.233 170.277 96.1414 168.769L92.8301 164.198C91.8318 162.819 93.1902 160.971 94.804 161.512L100.287 163.351C102.025 163.934 103.941 163.336 105.04 161.868L108.518 157.223Z" fill="#FFC1FC" stroke="#D56EBB" stroke-width="2.5"/>
<defs>
<linearGradient id="paint0_linear_186_168" x1="233.5" y1="0" x2="233.5" y2="252" gradientUnits="userSpaceOnUse">
<stop offset="0.625" stop-color="#83D2BE"/>
<stop offset="1" stop-color="#54A18E"/>
</linearGradient>
</defs>
</svg>
